name C:\Users\u0101727\Documents\MyRepositories\upper-imu-dc\Results\main_tracking\Case_62\kinematics.mot
datacolumns 10
datarows 47
range 2.07000000 2.53000000
endheader 
time	clav_prot	clav_elev	scapula_abduction	scapula_elevation	scapula_upward_rot	scapula_winging	plane_elv	shoulder_elv	axial_rot	
          2.07000000	        -20.83740455	         15.28623202	          5.24418476	          4.37417916	         42.52755863	         -4.51507919	         63.08306528	         89.97552317	          8.28029279	
          2.08000000	        -20.85123504	         15.18486412	          5.50197775	          4.26632874	         42.79037827	         -4.58174382	         62.90822536	         90.26571000	          8.62676354	
          2.09000000	        -20.87558098	         15.07864290	          5.74468786	          4.15456144	         43.05690163	         -4.64824147	         62.73552931	         90.54492712	          8.96919221	
          2.10000000	        -20.90971436	         14.96800182	          5.97306467	          4.03931027	         43.32667249	         -4.71434865	         62.56507932	         90.81347753	          9.30583317	
          2.11000000	        -20.95288859	         14.85345163	          6.18800762	          3.92103853	         43.59938905	         -4.77988816	         62.39695683	         91.07172673	          9.63530030	
          2.12000000	        -21.00442820	         14.73557930	          6.39040621	          3.80023419	         43.87491502	         -4.84472893	         62.23123002	         91.32009137	          9.95661451	
          2.13000000	        -21.06380482	         14.61504961	          6.58099752	          3.67740837	         44.15328107	         -4.90878419	         62.06795324	         91.55902590	         10.26921897	
          2.14000000	        -21.13067273	         14.49259389	          6.76028771	          3.55308934	         44.43466515	         -4.97200737	         61.90715391	         91.78901398	         10.57294872	
          2.15000000	        -21.20485092	         14.36898407	          6.92856044	          3.42781192	         44.71934953	         -5.03438526	         61.74881528	         92.01056926	         10.86795599	
          2.16000000	        -21.28635334	         14.24500725	          7.08581789	          3.30210060	         45.00770537	         -5.09593684	         61.59285825	         92.22419966	         11.15460921	
          2.17000000	        -21.39526891	         14.12306972	          7.19343692	          3.17649089	         45.30010487	         -5.15669817	         61.43916076	         92.43046199	         11.43345661	
          2.18000000	        -21.47200664	         13.99916307	          7.36631377	          3.05147086	         45.59707390	         -5.21674958	         61.28757147	         92.62978816	         11.70503324	
          2.19000000	        -21.57488569	         13.87870430	          7.49231289	          2.92754527	         45.89901018	         -5.27616178	         61.13788258	         92.82273351	         11.96994953	
          2.20000000	        -21.68621499	         13.76092982	          7.60558889	          2.80515395	         46.20624414	         -5.33502194	         60.98970350	         93.00978810	         12.22876249	
          2.21000000	        -21.80589212	         13.64637544	          7.70638367	          2.68467679	         46.51898015	         -5.39341425	         60.84258783	         93.19145371	         12.48199156	
          2.22000000	        -21.93399551	         13.53548557	          7.79455304	          2.56643021	         46.83732531	         -5.45142487	         60.69607489	         93.36820615	         12.73005941	
          2.23000000	        -22.07057168	         13.42860153	          7.86997197	          2.45067011	         47.16129075	         -5.50913988	         60.54971416	         93.54048596	         12.97326110	
          2.24000000	        -22.21560680	         13.32596316	          7.93258697	          2.33759361	         47.49079425	         -5.56664340	         60.40309090	         93.70869508	         13.21176317	
          2.25000000	        -22.36902731	         13.22771471	          7.98241935	          2.22734147	         47.82567065	         -5.62401696	         60.25585075	         93.87319083	         13.44562168	
          2.26000000	        -22.53071486	         13.13390958	          8.01954386	          2.11999873	         48.16568401	         -5.68133947	         60.10772103	         94.03427951	         13.67481665	
          2.27000000	        -22.70052758	         13.04451211	          8.04405671	          2.01559314	         48.51053906	         -5.73868745	         59.95852628	         94.19221042	         13.89929212	
          2.28000000	        -22.87831812	         12.95939654	          8.05604645	          1.91409223	         48.85988775	         -5.79613490	         59.80819494	         94.34717155	         14.11898789	
          2.29000000	        -23.06394441	         12.87834794	          8.05557501	          1.81540273	         49.21333204	         -5.85375266	         59.65675832	         94.49928534	         14.33386259	
          2.30000000	        -23.25727165	         12.80106923	          8.04267131	          1.71937473	         49.57042469	         -5.91160758	         59.50434387	         94.64860437	         14.54390556	
          2.31000000	        -23.45816391	         12.72719300	          8.01734012	          1.62581016	         49.93066705	         -5.96976121	         59.35116328	         94.79510926	         14.74913258	
          2.32000000	        -23.66646735	         12.65629778	          7.97958468	          1.53447486	         50.29350636	         -6.02826809	         59.19749633	         94.93871052	         14.94956603	
          2.33000000	        -23.88198936	         12.58792730	          7.92943788	          1.44511271	         50.65833529	         -6.08717398	         59.04367209	         95.07925573	         15.14520372	
          2.34000000	        -24.10447781	         12.52161003	          7.86699691	          1.35745979	         51.02449530	         -6.14651421	         58.89004883	         95.21654281	         15.33598213	
          2.35000000	        -24.33360486	         12.45687719	          7.79245447	          1.27125680	         51.39128537	         -6.20631236	         58.73699483	         95.35033825	         15.52174289	
          2.36000000	        -24.56895977	         12.39327871	          7.70611976	          1.18625927	         51.75797684	         -6.26657976	         58.58487209	         95.48039790	         15.70221226	
          2.37000000	        -24.81005242	         12.33039733	          7.60842519	          1.10224566	         52.12383396	         -6.32731599	         58.43402389	         95.60648756	         15.87699889	
          2.38000000	        -25.05632694	         12.26786081	          7.49991848	          1.01902351	         52.48813802	         -6.38851068	         58.28476638	         95.72840162	         16.04561066	
          2.39000000	        -25.30718277	         12.20535215	          7.38124301	          0.93643394	         52.85021286	         -6.45014624	         58.13738388	         95.84597858	         16.20748682	
          2.40000000	        -25.56199926	         12.14261780	          7.25311154	          0.85435493	         53.20944918	         -6.51220147	         57.99212787	         95.95911329	         16.36203940	
          2.41000000	        -25.82016016	         12.07947478	          7.11627813	          0.77270427	         53.56532610	         -6.57465559	         57.84921909	         96.06776542	         16.50869773	
          2.42000000	        -26.08107523	         12.01581695	          6.97151203	          0.69144243	         53.91742830	         -6.63749239	         57.70885250	         96.17196438	         16.64695027	
          2.43000000	        -26.34419715	         11.95161969	          6.81957579	          0.61057521	         54.26545747	         -6.70070400	         57.57120380	         96.27181047	         16.77637887	
          2.44000000	        -26.60903290	         11.88694196	          6.66120872	          0.53015532	         54.60923707	         -6.76429399	         57.43643597	         96.36747287	         16.89668198	
          2.45000000	        -26.87514914	         11.82192447	          6.49711602	          0.45028191	         54.94870996	         -6.82827926	         57.30470393	         96.45918513	         17.00768433	
          2.46000000	        -27.14217226	         11.75678332	          6.32796356	          0.37109771	         55.28392902	         -6.89269047	         57.17615574	         96.54723888	         17.10933244	
          2.47000000	        -27.40978341	         11.69179869	          6.15437734	          0.29278315	         55.61504165	         -6.95757099	         57.05092941	         96.63197647	         17.20167683	
          2.48000000	        -27.67771043	         11.62729940	          5.97694635	          0.21554783	         55.94226969	         -7.02297431	         56.92914580	         96.71378281	         17.28484389	
          2.49000000	        -27.94571804	         11.56364428	          5.79622654	          0.13961982	         56.26588644	         -7.08896044	         56.81089825	         96.79307674	         17.35900205	
          2.50000000	        -28.21359869	         11.50120202	          5.61274380	          0.06523369	         56.58619324	         -7.15559165	         56.69624091	         96.87030192	         17.42432812	
          2.51000000	        -28.48116574	         11.44033154	          5.42699375	         -0.00738167	         56.90349777	         -7.22292855	         56.58517742	         96.94591753	         17.48097935	
          2.52000000	        -28.74824989	         11.38136551	          5.23943784	         -0.07801354	         57.21809612	         -7.29102694	         56.47765159	         97.02038899	         17.52907539	
          2.53000000	        -29.01469866	         11.32459947	          5.05049647	         -0.14647266	         57.53025983	         -7.35993606	         56.37354150	         97.09417896	         17.56869223	
